/* XPM */
static char * HelpExample_xpm[] = {
"20 18 5 1",
" 	c #FFFFFFFFFFFF m white",
".	c #000000000000 m black",
"X	c #9999CFCFFFFF m black",
"o	c #59598585FFFF m black",
"O	c #00000000FFFF m black",
"                    ",
"                    ",
"                    ",
" ..                 ",
" .X..               ",
" .XXX..             ",
" .XooXX..           ",
" .XooooXX..         ",
" .XooooooXX.        ",
" .XooooOO..         ",
" .XooOO..           ",
" .XOO..             ",
" .O..               ",
" ..                 ",
"                    ",
"                    ",
"                    ",
"                    "};
