<?xml version="1.0" encoding="UTF-8" standalone="no"?>
<!-- Created with Inkscape (http://www.inkscape.org/) -->

<svg
   xmlns:i="&amp;#38;ns_ai;"
   xmlns:dc="http://purl.org/dc/elements/1.1/"
   xmlns:cc="http://creativecommons.org/ns#"
   xmlns:rdf="http://www.w3.org/1999/02/22-rdf-syntax-ns#"
   xmlns:svg="http://www.w3.org/2000/svg"
   xmlns="http://www.w3.org/2000/svg"
   xmlns:xlink="http://www.w3.org/1999/xlink"
   xmlns:sodipodi="http://sodipodi.sourceforge.net/DTD/sodipodi-0.dtd"
   xmlns:inkscape="http://www.inkscape.org/namespaces/inkscape"
   width="48px"
   height="48px"
   id="svg11488"
   sodipodi:version="0.32"
   inkscape:version="0.48.4 r9939"
   sodipodi:docname="application-x-perl.svg"
   inkscape:output_extension="org.inkscape.output.svg.inkscape"
   version="1.1">
  <defs
     id="defs11490">
    <radialGradient
       r="18.165728"
       fy="350.39514"
       fx="468.8118"
       cy="350.39514"
       cx="468.8118"
       gradientTransform="matrix(0.3779097,-0.3315835,0.4586381,0.8703295,-320.20991,-134.83344)"
       gradientUnits="userSpaceOnUse"
       id="radialGradient5311"
       xlink:href="#linearGradient5104-0"
       inkscape:collect="always" />
    <radialGradient
       r="18.165728"
       fy="350.39514"
       fx="468.8118"
       cy="350.39514"
       cx="468.8118"
       gradientTransform="matrix(-0.7577481,0.3622356,0.3338737,0.6761208,255.38474,-390.68954)"
       gradientUnits="userSpaceOnUse"
       id="radialGradient5314"
       xlink:href="#linearGradient5104-0"
       inkscape:collect="always" />
    <linearGradient
       id="linearGradient4680-04">
      <stop
         id="stop4682-1"
         offset="0"
         style="stop-color:#faeee1;stop-opacity:1;" />
      <stop
         id="stop4684-0"
         offset="1"
         style="stop-color:#eeeeec;stop-opacity:0;" />
    </linearGradient>
    <radialGradient
       r="18.165619"
       fy="351.18246"
       fx="501.5672"
       cy="351.18246"
       cx="501.5672"
       gradientTransform="matrix(0.2376525,-0.0495957,0.08424673,0.4527535,-137.68767,-114.1047)"
       gradientUnits="userSpaceOnUse"
       id="radialGradient5321"
       xlink:href="#linearGradient4680-04"
       inkscape:collect="always" />
    <linearGradient
       id="linearGradient4705-4"
       inkscape:collect="always">
      <stop
         id="stop4707-8"
         offset="0"
         style="stop-color:#ffffff;stop-opacity:1;" />
      <stop
         id="stop4709-7"
         offset="1"
         style="stop-color:#ffffff;stop-opacity:0;" />
    </linearGradient>
    <radialGradient
       r="17.272978"
       fy="339.23566"
       fx="520.37604"
       cy="339.23566"
       cx="520.37604"
       gradientTransform="matrix(0.1161161,1.4982097,-1.3674755,0.1256162,412.82497,-806.64895)"
       gradientUnits="userSpaceOnUse"
       id="radialGradient5324"
       xlink:href="#linearGradient4705-4"
       inkscape:collect="always" />
    <linearGradient
       id="linearGradient4373-0">
      <stop
         style="stop-color:#3e1f0a;stop-opacity:1;"
         offset="0"
         id="stop4375-0" />
      <stop
         style="stop-color:#48230e;stop-opacity:0;"
         offset="1"
         id="stop4377-4" />
    </linearGradient>
    <radialGradient
       r="18.165619"
       fy="354.92532"
       fx="525.50281"
       cy="354.92532"
       cx="525.50281"
       gradientTransform="matrix(-0.1990899,-0.4344416,0.8346546,-0.3023587,-171.95823,358.25889)"
       gradientUnits="userSpaceOnUse"
       id="radialGradient5328"
       xlink:href="#linearGradient4373-0"
       inkscape:collect="always" />
    <radialGradient
       r="18.165728"
       fy="350.39514"
       fx="468.8118"
       cy="350.39514"
       cx="468.8118"
       gradientTransform="matrix(0.4600411,-0.23627,0.3774649,0.7167643,-331.2717,-123.70401)"
       gradientUnits="userSpaceOnUse"
       id="radialGradient5331"
       xlink:href="#linearGradient5104-0"
       inkscape:collect="always" />
    <linearGradient
       id="linearGradient5104-0">
      <stop
         id="stop5106-8"
         offset="0"
         style="stop-color:#f8821f;stop-opacity:1;" />
      <stop
         id="stop5108-6"
         offset="1"
         style="stop-color:#cc6107;stop-opacity:0;" />
    </linearGradient>
    <radialGradient
       r="18.165728"
       fy="350.39514"
       fx="468.8118"
       cy="350.39514"
       cx="468.8118"
       gradientTransform="matrix(0.6259488,-0.3338841,0.3694718,0.7214671,-405.97367,-79.752059)"
       gradientUnits="userSpaceOnUse"
       id="radialGradient5334"
       xlink:href="#linearGradient5104-0"
       inkscape:collect="always" />
    <linearGradient
       id="linearGradient4114-5"
       inkscape:collect="always">
      <stop
         id="stop4116-9"
         offset="0"
         style="stop-color:#000000;stop-opacity:1;" />
      <stop
         id="stop4118-9"
         offset="1"
         style="stop-color:#000000;stop-opacity:0;" />
    </linearGradient>
    <radialGradient
       r="12.289036"
       fy="63.965389"
       fx="15.115514"
       cy="63.965389"
       cx="15.115514"
       gradientTransform="scale(1.64399,0.608276)"
       gradientUnits="userSpaceOnUse"
       id="radialGradient5265"
       xlink:href="#linearGradient4114-5"
       inkscape:collect="always" />
    <linearGradient
       id="linearGradient177">
      <stop
         id="stop178"
         offset="0.0000000"
         style="stop-color: rgb(255, 255, 255); stop-opacity: 1;" />
      <stop
         id="stop179"
         offset="1.0000000"
         style="stop-color: rgb(176, 176, 176); stop-opacity: 1;" />
    </linearGradient>
    <linearGradient
       y2="137.97153"
       x2="136.9856"
       y1="67.364906"
       x1="81.307533"
       gradientTransform="scale(1.24436,0.803624)"
       gradientUnits="userSpaceOnUse"
       id="linearGradient632"
       xlink:href="#linearGradient177"
       inkscape:collect="always" />
    <linearGradient
       inkscape:collect="always"
       id="linearGradient3656">
      <stop
         style="stop-color:#ffffff;stop-opacity:1;"
         offset="0"
         id="stop3658" />
      <stop
         style="stop-color:#ffffff;stop-opacity:0;"
         offset="1"
         id="stop3660" />
    </linearGradient>
    <linearGradient
       inkscape:collect="always"
       xlink:href="#linearGradient3656"
       id="linearGradient5816"
       gradientUnits="userSpaceOnUse"
       x1="-26.753757"
       y1="11.566258"
       x2="-24.75"
       y2="9.687501" />
    <linearGradient
       inkscape:collect="always"
       id="linearGradient3520">
      <stop
         style="stop-color:#000000;stop-opacity:0.41295547"
         offset="0"
         id="stop3522" />
      <stop
         style="stop-color:#000000;stop-opacity:0;"
         offset="1"
         id="stop3524" />
    </linearGradient>
    <linearGradient
       inkscape:collect="always"
       xlink:href="#linearGradient3520"
       id="linearGradient5836"
       gradientUnits="userSpaceOnUse"
       gradientTransform="matrix(0.9223058,0,0,0.9185751,-92.447368,61.3257)"
       x1="-18.588562"
       y1="11.052948"
       x2="-28.789402"
       y2="14.069944" />
    <linearGradient
       id="linearGradient3671">
      <stop
         style="stop-color:#ffffff;stop-opacity:1;"
         offset="0"
         id="stop3673" />
      <stop
         id="stop3691"
         offset="0.47533694"
         style="stop-color:#ffffff;stop-opacity:1;" />
      <stop
         style="stop-color:#ffffff;stop-opacity:0;"
         offset="1"
         id="stop3675" />
    </linearGradient>
    <radialGradient
       inkscape:collect="always"
       xlink:href="#linearGradient3671"
       id="radialGradient5839"
       gradientUnits="userSpaceOnUse"
       gradientTransform="matrix(0.4073362,-0.2798276,0.7510293,1.0932492,-115.18484,51.56213)"
       cx="-26.305403"
       cy="10.108011"
       fx="-26.305403"
       fy="10.108011"
       r="7.0421038" />
    <linearGradient
       inkscape:collect="always"
       id="linearGradient6469">
      <stop
         style="stop-color:#000000;stop-opacity:1;"
         offset="0"
         id="stop6471" />
      <stop
         style="stop-color:#000000;stop-opacity:0;"
         offset="1"
         id="stop6473" />
    </linearGradient>
    <linearGradient
       inkscape:collect="always"
       xlink:href="#linearGradient6469"
       id="linearGradient6475"
       x1="58.282169"
       y1="70.751839"
       x2="61.181217"
       y2="67.799171"
       gradientUnits="userSpaceOnUse"
       gradientTransform="translate(-180,0)" />
    <linearGradient
       inkscape:collect="always"
       id="linearGradient3741">
      <stop
         style="stop-color:#ffffff;stop-opacity:1;"
         offset="0"
         id="stop3743" />
      <stop
         style="stop-color:#ffffff;stop-opacity:0;"
         offset="1"
         id="stop3745" />
    </linearGradient>
    <radialGradient
       inkscape:collect="always"
       xlink:href="#linearGradient3741"
       id="radialGradient5810"
       gradientUnits="userSpaceOnUse"
       gradientTransform="matrix(1.8860258,0,0,1.1764706,-3.5441033,-4.2352941)"
       cx="4"
       cy="5.2999997"
       fx="4"
       fy="5.2999997"
       r="17" />
    <linearGradient
       inkscape:collect="always"
       id="linearGradient3613">
      <stop
         style="stop-color:#888a85;stop-opacity:1"
         offset="0"
         id="stop3615" />
      <stop
         style="stop-color:#babdb6;stop-opacity:1"
         offset="1"
         id="stop3617" />
    </linearGradient>
    <linearGradient
       inkscape:collect="always"
       xlink:href="#linearGradient3613"
       id="linearGradient5845"
       gradientUnits="userSpaceOnUse"
       gradientTransform="translate(-90,60)"
       x1="-47.5"
       y1="49.020683"
       x2="-62.75"
       y2="-22.502075" />
    <linearGradient
       id="linearGradient3683">
      <stop
         id="stop3685"
         offset="0"
         style="stop-color:#f6f6f5;stop-opacity:1;" />
      <stop
         id="stop3689"
         offset="1"
         style="stop-color:#d3d7cf;stop-opacity:1" />
    </linearGradient>
    <radialGradient
       inkscape:collect="always"
       xlink:href="#linearGradient3683"
       id="radialGradient5843"
       gradientUnits="userSpaceOnUse"
       gradientTransform="matrix(3.9957492,0,0,1.9350367,0.62141,28.832578)"
       cx="-30.249996"
       cy="35.357208"
       fx="-30.249996"
       fy="35.357208"
       r="18.000002" />
    <linearGradient
       inkscape:collect="always"
       xlink:href="#linearGradient3702"
       id="linearGradient5804"
       gradientUnits="userSpaceOnUse"
       x1="25.058096"
       y1="47.027729"
       x2="25.058096"
       y2="39.999443" />
    <radialGradient
       inkscape:collect="always"
       xlink:href="#linearGradient3688"
       id="radialGradient5802"
       gradientUnits="userSpaceOnUse"
       gradientTransform="matrix(2.003784,0,0,1.4,-20.01187,-104.4)"
       cx="4.9929786"
       cy="43.5"
       fx="4.9929786"
       fy="43.5"
       r="2.5" />
    <radialGradient
       inkscape:collect="always"
       xlink:href="#linearGradient3688"
       id="radialGradient5800"
       gradientUnits="userSpaceOnUse"
       gradientTransform="matrix(2.003784,0,0,1.4,27.98813,-17.4)"
       cx="4.9929786"
       cy="43.5"
       fx="4.9929786"
       fy="43.5"
       r="2.5" />
    <linearGradient
       id="linearGradient3702">
      <stop
         id="stop3704"
         offset="0"
         style="stop-color:black;stop-opacity:0;" />
      <stop
         style="stop-color:black;stop-opacity:1;"
         offset="0.5"
         id="stop3710" />
      <stop
         id="stop3706"
         offset="1"
         style="stop-color:black;stop-opacity:0;" />
    </linearGradient>
    <linearGradient
       inkscape:collect="always"
       xlink:href="#linearGradient3702"
       id="linearGradient5798"
       gradientUnits="userSpaceOnUse"
       x1="25.058096"
       y1="47.027729"
       x2="25.058096"
       y2="39.999443" />
    <radialGradient
       inkscape:collect="always"
       xlink:href="#linearGradient3688"
       id="radialGradient5796"
       gradientUnits="userSpaceOnUse"
       gradientTransform="matrix(2.003784,0,0,1.4,-20.01187,-104.4)"
       cx="4.9929786"
       cy="43.5"
       fx="4.9929786"
       fy="43.5"
       r="2.5" />
    <linearGradient
       id="linearGradient3688"
       inkscape:collect="always">
      <stop
         id="stop3690"
         offset="0"
         style="stop-color:black;stop-opacity:1;" />
      <stop
         id="stop3692"
         offset="1"
         style="stop-color:black;stop-opacity:0;" />
    </linearGradient>
    <radialGradient
       inkscape:collect="always"
       xlink:href="#linearGradient3688"
       id="radialGradient5794"
       gradientUnits="userSpaceOnUse"
       gradientTransform="matrix(2.003784,0,0,1.4,27.98813,-17.4)"
       cx="4.9929786"
       cy="43.5"
       fx="4.9929786"
       fy="43.5"
       r="2.5" />
  </defs>
  <sodipodi:namedview
     id="base"
     pagecolor="#ffffff"
     bordercolor="#666666"
     borderopacity="1.0"
     inkscape:pageopacity="0.0"
     inkscape:pageshadow="2"
     inkscape:zoom="7"
     inkscape:cx="18.560793"
     inkscape:cy="24"
     inkscape:current-layer="layer1"
     showgrid="true"
     inkscape:grid-bbox="true"
     inkscape:document-units="px"
     inkscape:window-width="641"
     inkscape:window-height="688"
     inkscape:window-x="340"
     inkscape:window-y="54"
     inkscape:window-maximized="0" />
  <metadata
     id="metadata11493">
    <rdf:RDF>
      <cc:Work
         rdf:about="">
        <dc:format>image/svg+xml</dc:format>
        <dc:type
           rdf:resource="http://purl.org/dc/dcmitype/StillImage" />
      </cc:Work>
    </rdf:RDF>
  </metadata>
  <g
     id="layer1"
     inkscape:label="Layer 1"
     inkscape:groupmode="layer">
    <g
       id="g4309"
       transform="matrix(1.5930973,0,0,1.5930973,-1.5608416,-1.4722718)">
      <g
         inkscape:label="Shadow"
         id="layer6-3" />
      <g
         id="layer1-0"
         inkscape:label="Base"
         style="display:inline" />
      <g
         style="display:inline"
         inkscape:label="Text"
         id="layer5-1" />
      <g
         inkscape:label="emblem"
         id="layer2-7">
        <g
           transform="translate(-54.12868,24.476865)"
           inkscape:label="Shadow"
           id="layer6-2" />
        <g
           transform="translate(-54.12868,24.476865)"
           id="layer1-6"
           inkscape:label="Base"
           style="display:inline" />
        <g
           transform="translate(-54.12868,24.476865)"
           style="display:inline"
           inkscape:label="Text"
           id="layer5-5" />
        <g
           transform="translate(-64.999947,-7.056766)"
           id="layer2-2"
           inkscape:label="trash">
          <g
             i:knockout="Off"
             style="fill:url(#linearGradient632);fill-opacity:1;fill-rule:evenodd;stroke:none;stroke-width:2.13333011;marker:none;visibility:visible;display:inline;overflow:visible"
             id="g620"
             transform="matrix(0.273209,0,0,0.273209,6.15312,9.65744)" />
        </g>
        <g
           transform="translate(-72.50237,-6.3154108)"
           inkscape:label="Shadow"
           id="layer6-1" />
        <g
           transform="translate(-72.50237,-6.3154108)"
           id="layer1-7"
           inkscape:label="Base"
           style="display:inline" />
        <g
           transform="translate(-72.50237,-6.3154108)"
           style="display:inline"
           inkscape:label="Text"
           id="layer5-8" />
        <path
           sodipodi:type="arc"
           style="opacity:0.51999996;fill:url(#radialGradient5265);fill-opacity:1;stroke:none;display:inline"
           id="path4325-1"
           sodipodi:cx="24.849752"
           sodipodi:cy="38.908627"
           sodipodi:rx="20.203051"
           sodipodi:ry="7.4751287"
           d="m 45.052803,38.908627 c 0,4.128399 -9.045214,7.475128 -20.203051,7.475128 -11.157836,0 -20.2030502,-3.346729 -20.2030502,-7.475128 0,-4.1284 9.0452142,-7.475129 20.2030502,-7.475129 11.157837,0 20.203051,3.346729 20.203051,7.475129 z"
           transform="matrix(0.599551,0,0,0.87593,1.101306,-9.574779)" />
        <path
           style="fill:#a24407;fill-opacity:1;fill-rule:nonzero;stroke:none"
           d="m 7.079029,2.761597 c -0.0078,0.0046 -0.01478,0.02163 -0.02362,0.03596 -0.434019,0.242002 -0.644563,0.36694 -0.612944,0.471105 -0.0319,0.07009 -0.05867,0.159771 -0.0287,0.259935 0.01208,0.04033 1.687436,2.978477 1.708675,3.015968 0.525738,0.927974 0.902794,1.841472 0.95425,2.266715 0.115242,0.952695 -0.293318,2.332768 -1.5037,4.994393 -1.287796,2.831859 -1.827893,4.8563 -1.725424,6.583119 0.201984,3.404156 2.791522,6.329023 6.254818,7.080157 1.237353,0.268361 3.242331,0.250895 4.630824,0.05936 0.06207,-0.0086 0.117132,-0.0284 0.176622,-0.03767 1.229043,-0.240359 2.850416,-0.854356 4.250072,-1.660979 0.0678,-0.02166 0.141277,-0.05512 0.197965,-0.116476 0.656157,-0.39241 1.253905,-0.832241 1.735015,-1.28596 1.293422,-1.219759 2.132614,-2.264817 2.611793,-3.193811 C 27.962732,17.271144 27.25891,12.428602 24.007768,10.123751 22.649625,9.160924 20.331784,8.57317 17.075032,8.36964 12.456473,8.080996 11.820947,7.831364 10.772007,5.979892 10.699547,5.851994 10.653027,5.764881 10.593629,5.665037 10.411457,5.338488 10.221943,5.011378 10.039718,4.687333 10.033618,4.676443 9.178396,3.167007 9.522026,3.77356 8.974998,4.12242 7.862908,3.72047 7.121399,2.758726 c -0.01145,0.0011 -0.03371,-0.0022 -0.04237,0.0029 l 0,-2.9e-5 z"
           id="rect4675-5"
           sodipodi:nodetypes="cccssssssssccscsssssccc"
           inkscape:connector-curvature="0" />
        <path
           id="path4199-4"
           d="M 7.075966,2.760601 C 6.975035,2.819981 7.33315,3.502769 7.988802,4.496838 8.266369,4.91765 8.515162,5.364572 8.766651,5.807315 8.898954,5.760785 8.920851,5.642031 8.845221,5.508497 8.766111,5.36886 8.800841,5.20985 8.893131,5.155552 8.903151,5.149652 8.909321,5.140602 8.919681,5.139922 8.390408,4.227524 7.896288,3.4317 7.648183,3.145612 7.420699,2.883301 7.166371,2.707406 7.075966,2.760596 l 0,5e-6 z m 0.331595,1.897796 c -0.158759,0.09387 0.107393,0.814557 0.715714,1.888301 0.525737,0.927974 0.905472,1.826319 0.956927,2.251562 0.115243,0.952695 -0.308185,2.345465 -1.518568,5.00709 -1.287794,2.831858 -1.81566,4.874242 -1.713191,6.601061 0.02248,0.378816 0.09624,0.759003 0.176069,1.123277 -0.0502,-0.253689 -0.06533,-0.516146 -0.08708,-0.778706 C 5.798279,19.070945 6.448454,16.760414 7.903865,13.784417 9.069922,11.400078 9.58985,10.15983 9.65242,9.183276 9.64612,9.157546 9.65542,9.140626 9.64832,9.113526 9.314061,7.843126 8.11856,5.094438 7.716128,4.76553 7.567942,4.644429 7.460485,4.62711 7.407571,4.658399 l -10e-6,-2e-6 z M 6.024512,21.529688 c 0.110693,0.505115 0.259176,0.988654 0.470394,1.455288 C 6.289652,22.520063 6.12492,22.037061 6.024512,21.529688 z M 9.227138,4.995115 c 0.0027,0.09658 0.119545,0.279889 0.317874,0.498578 C 9.439728,5.308565 9.352106,5.157196 9.253694,4.97949 c -0.0036,0.01013 -0.02692,0.0027 -0.02655,0.01563 l -6e-6,-5e-6 z m 0.692675,0.09764 c -0.01625,0.0203 -0.02166,0.04405 -0.03778,0.05831 1.071407,1.89613 2.356902,3.591802 3.331776,4.318388 0.0071,0.0052 0.0083,0.02194 0.01534,0.02706 0.06701,0.03172 0.112024,0.03869 0.182889,0.07282 0.715372,0.344422 1.788948,0.777901 2.392894,0.973677 1.594045,0.516715 2.859406,1.189921 3.976763,2.20685 0.407997,0.371327 0.689723,0.66606 0.966754,1.01891 0.05007,0.05612 0.111636,0.09985 0.160441,0.158193 0.29887,0.357273 0.537066,0.777431 0.758409,1.213662 0.02348,0.03864 0.03847,0.0701 0.06133,0.108253 1.096713,1.832879 1.462232,3.135142 1.417491,4.939502 -0.03841,1.548787 -0.344548,3.016841 -0.559007,2.638301 -0.07829,-0.138186 -0.146377,-0.67508 -0.15362,-1.208654 -0.0022,-0.157857 -0.0062,-0.306819 -0.01342,-0.461198 -0.144133,0.80285 -0.368255,1.576097 -0.701109,2.32498 -0.12849,0.289087 -0.248296,0.498658 -0.347143,0.637259 0.550141,-0.09719 1.2225,-0.131949 1.574256,-0.09629 0.03855,0.0039 0.07398,0.0052 0.110335,0.0073 -0.013,-0.123113 0.31254,-0.876206 0.749307,-1.739904 0.06576,-0.130025 0.108676,-0.259206 0.169464,-0.388381 -0.04522,-0.214613 -0.01534,-0.711158 0.07828,-1.236839 0.460324,-2.585256 0.09669,-4.616576 -1.173861,-6.634474 -1.219349,-1.936589 -2.304968,-2.594014 -6.193078,-3.681348 -2.912295,-0.814448 -3.849231,-1.169246 -4.061346,-1.543649 -0.0027,-0.0048 -0.01808,-0.0245 -0.01534,-0.02706 0.04702,-0.04725 0.739409,0.110405 1.598906,0.322216 0.916775,0.225924 2.315109,0.468327 3.109925,0.551802 0.208081,0.02185 0.384052,0.06321 0.58234,0.09038 C 17.324527,9.55619 16.74804,9.349984 16.164111,9.177036 14.593301,8.711796 12.977358,8.146157 12.598319,7.883086 12.522859,7.830716 12.414489,7.725888 12.308102,7.620827 12.287872,7.610647 12.270612,7.592817 12.250882,7.582327 11.624438,7.2489 11.225761,6.77286 10.783353,5.99197 10.244079,5.040102 10.086668,4.884836 9.919818,5.092752 l -5e-6,3e-6 z M 9.256996,5.735323 c 0.131248,0.386101 0.748398,1.5888 1.411693,2.741766 0.03699,0.06431 0.0564,0.102956 0.092,0.162379 C 10.338267,7.757375 9.820082,6.735633 9.257001,5.735323 l -5e-6,0 z m 2.096152,2.699899 c 0.159205,0.305691 0.294556,0.608678 0.422195,0.870212 0.03699,0.0757 0.10253,0.169775 0.137993,0.243569 -0.01295,0.02132 0.06482,0.08048 0.400552,0.269512 C 12.162324,9.638392 12.032066,9.432934 11.850905,9.188807 11.712298,9.002013 11.521232,8.686726 11.353148,8.435222 l 0,0 z m -0.42762,1.370212 c -0.03884,0.03348 -0.101945,0.501257 -0.154936,1.101522 9.14e-4,0.0088 0.01447,0.01834 0.01534,0.02706 0.06544,0.658747 -0.02728,2.275796 -0.201151,3.582451 -0.353777,2.658632 -0.319182,3.942332 0.07212,5.189803 0.16134,0.420919 0.37442,0.866747 0.706396,1.496855 0.02154,0.03422 0.03913,0.07427 0.06133,0.108253 1.021634,1.564478 2.720376,2.883892 4.690275,3.591265 -1.742946,-1.135754 -2.975977,-2.551579 -4.017335,-4.528465 -1.067268,-2.026067 -1.252177,-3.213438 -1.067634,-6.696973 0.138223,-2.609263 0.107716,-3.497371 -0.1044,-3.871774 l -5e-6,3e-6 z m 0.615207,0.648397 c 0.005,0.05562 -9.78e-4,0.09213 0.01233,0.209255 0.08149,0.717379 0.132361,1.752577 0.135576,2.301802 0.0033,0.570543 0.06016,1.11768 0.125157,1.658413 -0.0093,-0.50065 -0.0076,-1.039797 5.11e-4,-1.624098 0.01652,-1.203792 -0.0204,-1.764706 -0.273569,-2.545372 l -5e-6,0 z m 0.945918,-0.267869 c 0.03578,0.07755 0.11737,0.252789 0.157434,0.340385 0.413467,0.430614 0.884894,0.92192 1.169084,1.188541 0.952871,0.893959 1.771683,1.829898 2.622371,3.003725 0.621248,0.857235 0.905709,1.316439 1.620037,2.547015 1.112753,1.91695 1.678298,3.115328 2.169296,4.641505 0.412853,1.283282 0.664606,2.423091 0.450147,2.044551 0.01275,0.110383 -0.01736,0.156856 -0.07967,0.04687 -0.01736,-0.03065 -0.06935,-0.173082 -0.09611,-0.232132 0.08066,0.29548 0.1112,0.44628 0.01644,0.279007 -0.07829,-0.138186 -0.27495,-0.599432 -0.445744,-1.036779 -0.21384,-0.547587 -0.431739,-1.090495 -0.672724,-1.624919 0.10892,0.391793 0.201998,0.779019 0.27518,1.173216 -0.04021,-0.100827 -0.06898,-0.155349 -0.111437,-0.259194 -0.598114,-1.463153 -1.196982,-2.641926 -2.302079,-4.56338 -0.70945,-1.233446 -0.984547,-1.698159 -1.566923,-2.578265 -0.699619,-1.057271 -1.367158,-1.928931 -2.073704,-2.785275 0.158678,0.166819 0.255279,0.271529 0.439435,0.46314 0.349643,0.3638 0.65474,0.729807 0.970862,1.088662 -0.390919,-0.513789 -0.826062,-1.075766 -1.396064,-1.776682 -0.29266,-0.359872 -0.406351,-0.515923 -0.623425,-0.787901 0.140047,0.312876 0.225952,0.489486 0.410971,0.912901 0.409001,0.935988 0.683076,1.523598 0.979374,2.166185 0.743464,1.088843 1.365674,2.050476 2.10657,3.343288 0.989636,1.727 1.748767,3.214535 2.462519,4.721574 0.182488,0.273288 0.356219,0.563339 0.543755,0.834775 0.227624,0.32944 0.417445,0.627711 0.52842,0.807712 0.271757,0.113731 0.554339,0.114922 0.977684,0.0382 -0.110535,-0.253686 -0.141598,-0.895223 -0.07314,-1.941606 0.0029,-0.04493 0.0043,-0.06867 0.0072,-0.11244 -0.400898,-1.952412 -1.091143,-3.701216 -2.242145,-5.645091 -1.165455,-1.968297 -1.942213,-2.807445 -4.387222,-4.743848 -0.922515,-0.73062 -1.439314,-1.187642 -1.836304,-1.553746 l -8.8e-5,6e-6 z m -3.865168,5.052624 c -0.675205,1.689635 -0.982096,3.163086 -0.896539,4.605027 0.07011,1.181507 0.23186,1.712908 0.876451,2.984515 1.004126,1.980861 2.071568,2.883942 4.081377,3.516505 1.689944,0.531887 3.559286,0.719966 3.344826,0.341426 -0.0098,-0.01728 -0.04973,-0.04454 -0.07256,-0.06556 -5.533659,-0.43186 -8.562752,-3.910942 -7.787442,-9.05805 0.06345,-0.421189 0.239536,-1.32567 0.453882,-2.323858 l 5e-6,-5e-6 z m 7.587588,-2.732212 c 0.527575,0.435135 1.018704,0.908946 1.501191,1.462239 0.704717,0.808125 1.001372,1.260154 1.726264,2.484515 0.808883,1.366232 1.275657,2.39061 1.578443,3.473596 -0.0253,-0.922004 -0.152805,-1.552953 -0.448241,-2.478685 -0.647227,-2.02801 -1.705623,-3.25921 -4.357657,-4.941665 z m 10.458581,1.460355 c 0.107587,0.361379 0.171525,0.71495 0.229182,1.092027 -0.05729,-0.376996 -0.12302,-0.732755 -0.229182,-1.092027 z M 9.526046,26.397715 c 0.191921,0.12007 0.380623,0.237886 0.583441,0.342328 C 9.912938,26.636246 9.71216,26.514788 9.526046,26.397715 z m 6.230699,-3.377244 c 0.304505,0.320258 0.625688,0.632533 0.989203,0.933534 1.077522,0.892215 2.178338,1.532466 1.963879,1.153926 -0.07829,-0.138185 -0.450793,-0.495972 -0.817538,-0.818029 -0.08939,-0.0785 -0.161332,-0.171247 -0.248328,-0.250821 -0.841764,-0.423789 -1.42017,-0.725781 -1.887216,-1.01861 l 0,0 z m 11.148092,-5.260096 c -0.06679,0.398052 -0.162545,0.786704 -0.287721,1.179647 -0.55189,1.732441 -2.362012,4.462194 -3.191933,5.053445 0.51319,-0.112874 0.907776,-0.62164 1.956684,-2.233774 0.823499,-1.265683 1.321306,-2.632598 1.52297,-3.999318 z m -7.533,7.391065 c -0.04685,0.05691 -0.07237,0.08363 -0.128675,0.147877 -0.03333,0.03804 -0.06846,0.09122 -0.102118,0.132251 0.263865,-0.03158 0.339529,-0.12508 0.230793,-0.280128 l 0,0 z m -1.148758,1.722336 c -0.05832,0.117725 -0.139009,0.221205 -0.215462,0.307191 0.190369,-0.09385 0.319957,-0.185248 0.257351,-0.295753 -0.0015,-0.0026 -0.03835,-0.0087 -0.04189,-0.01144 l 10e-7,2e-6 z"
           style="fill:url(#radialGradient5334);fill-opacity:1;fill-rule:nonzero;stroke:none"
           sodipodi:nodetypes="cscssssccssssssssssccscccscccsssssssssssscscssscssssssscsssssccssccsscsccssscsscssccsscscccsssscsssscsssscscscscscsccscssccsssscsccsscsccsccsccssscccscsccssccssc"
           inkscape:connector-curvature="0" />
        <path
           id="path4666-9"
           d="m 7.223493,2.677788 c -0.07354,0.04326 0.272698,0.713413 0.909526,1.718558 1.43096,2.258488 2.696153,4.929798 2.988755,6.35039 0.128084,0.62189 0.247752,2.118791 0.259948,3.315972 0.02625,2.576977 0.189827,3.75571 0.708237,5.040766 1.10043,2.727794 3.976604,5.296004 6.786499,6.0382 1.252131,0.330731 1.002671,-0.136439 -0.68686,-1.297192 -2.011939,-1.382266 -2.43648,-1.756769 -3.407901,-2.988384 C 13.22757,18.885682 12.664067,17.127287 12.176236,12.77773 12.008703,11.284211 11.89599,10.850752 11.292032,9.519718 10.522046,7.82281 8.331164,3.889838 7.725608,3.111495 7.514178,2.839739 7.289344,2.639044 7.223474,2.677798 l 2e-5,-1.1e-5 -10e-7,1e-6 z m 0.473822,1.79815 c -0.115621,0.06849 0.185131,0.779393 0.793453,1.853136 0.525737,0.927974 0.93139,1.824647 1.021406,2.227202 0.201645,0.901859 0.03539,2.139371 -0.621711,4.475463 -0.699121,2.485504 -0.895839,4.307914 -0.615099,5.929844 0.553421,3.197385 2.953159,6.23392 5.798153,7.348843 1.750918,0.686163 5.198899,0.831419 4.841487,0.200555 -0.04203,-0.07419 -0.731691,-0.265177 -1.524899,-0.428504 C 12.735154,25.123971 9.782739,21.426195 9.807312,16.60197 9.810412,15.979403 9.903852,14.266853 10.02781,12.804466 10.151773,11.342083 10.201422,9.785771 10.12057,9.34726 9.969197,8.526331 8.37063,5.035612 7.960974,4.630142 7.828986,4.499511 7.735854,4.453108 7.697318,4.475938 l -3e-6,0 z m 1.519634,0.475791 c -0.07298,0.04294 0.03893,0.281157 0.283164,0.584628 0.22507,0.27959 0.965539,1.492919 1.633213,2.684752 1.069378,1.908829 1.317603,2.49833 2.192241,5.029336 1.622513,4.695125 3.532894,7.995111 5.961231,10.324099 0.803354,0.770489 0.895,0.807684 1.648441,0.731433 0.440916,-0.04463 1.061369,-0.0068 1.373193,0.07586 0.652423,0.172947 0.853999,-0.04848 1.68401,-1.808328 1.631783,-3.459814 0.545552,-8.354783 -2.436888,-11.00571 C 20.362821,10.507651 18.448979,9.6822 15.831639,9.102463 12.119858,8.280302 11.5849,7.9715 10.535963,6.120027 9.996688,5.168158 9.861095,5.015363 9.752177,5.189193 9.671947,5.317214 9.574576,5.300038 9.487388,5.146173 9.408278,5.006538 9.284214,4.912192 9.216975,4.951755 l -2e-5,10e-6 -6e-6,-3.6e-5 z m 3.103558,4.007061 c 0.03201,-0.03842 0.598068,0.167931 1.307047,0.468301 0.756225,0.320386 1.897813,0.718539 2.540477,0.891535 1.696237,0.456589 3.019242,1.122912 4.179102,2.114833 0.847033,0.724392 1.175808,1.126253 1.918709,2.340017 1.157257,1.890765 1.517399,3.213615 1.38619,5.105876 -0.110329,1.591103 -0.530646,3.13691 -0.745105,2.75837 -0.07829,-0.138186 -0.125096,-0.692167 -0.109171,-1.239373 0.06851,-2.354728 -0.453935,-4.303023 -1.698563,-6.336168 -1.194478,-1.951222 -2.123781,-2.666838 -5.345887,-4.146025 -2.413443,-1.107955 -3.211294,-1.566391 -3.42341,-1.940795 -0.0027,-0.0048 -0.01128,-0.01451 -0.0094,-0.01655 l -1.5e-5,-2.6e-5 2.6e-5,5e-6 z"
           style="fill:url(#radialGradient5331);fill-opacity:1;fill-rule:nonzero;stroke:none"
           sodipodi:nodetypes="csssssssssscccsssssssssssccsssssssssssscccsssssssssscc"
           inkscape:connector-curvature="0" />
        <path
           style="opacity:0.80058654;fill:url(#radialGradient5328);fill-opacity:1;fill-rule:nonzero;stroke:none"
           d="m 7.201622,1.750214 c -0.0078,0.0046 -0.01478,0.02163 -0.02362,0.03596 -0.434021,0.242002 -0.644564,0.36694 -0.612945,0.471104 -0.0319,0.07009 -0.05867,0.159771 -0.0287,0.259935 0.01208,0.04033 1.687435,2.978477 1.708676,3.015968 0.525736,0.927974 0.902792,1.841472 0.954248,2.266715 0.115243,0.952694 -0.293318,2.332769 -1.503701,4.994394 -1.287795,2.831858 -1.827891,4.856299 -1.725423,6.583118 0.201985,3.404156 2.791522,6.329023 6.254819,7.080158 1.237352,0.268361 3.242331,0.250895 4.630823,0.05936 0.06207,-0.0086 0.117132,-0.0284 0.176622,-0.03767 1.229044,-0.240359 2.850416,-0.854356 4.250072,-1.660979 0.0678,-0.02165 0.141276,-0.05512 0.197965,-0.116476 0.656156,-0.392409 1.2539,-0.83225 1.735017,-1.28596 1.293419,-1.219759 2.132612,-2.264817 2.611793,-3.19381 2.258056,-3.96227 1.554234,-8.804812 -1.696909,-11.109664 C 22.772215,8.149541 20.454375,7.561788 17.197624,7.358257 12.579065,7.069614 11.943537,6.819981 10.894599,4.968508 10.822139,4.840611 10.775619,4.753497 10.716221,4.653654 10.534049,4.327104 10.344536,3.999995 10.16231,3.675951 10.15213,3.657831 9.177737,1.938175 8.894886,1.438831 8.848096,1.356221 8.568007,0.861861 8.622624,0.958266 c -0.61613,0.37163 -1.046208,0.604351 -1.37863,0.789081 -0.01144,0.0011 -0.03371,-0.0022 -0.04238,0.0029 l 8e-6,-3.3e-5 z"
           id="path4369-2"
           inkscape:connector-curvature="0" />
        <path
           style="fill:none;stroke:#642c03;stroke-width:0.99059623;stroke-miterlimit:4;stroke-opacity:1;stroke-dasharray:none"
           d="m 7.181361,2.98105 c -0.002,0.0089 -0.0042,0.01762 -0.0071,0.02623 -0.215946,0.120705 -0.379819,0.212388 -0.461919,0.271776 -0.03075,0.02237 -0.0439,0.02375 -0.04947,0.0291 -0.0027,0.01797 -0.0076,0.03562 -0.01422,0.05256 -0.01154,0.02538 -0.01229,0.0382 -0.01422,0.05256 0.0011,0.0022 0.0072,0.01246 0.0094,0.01654 0.0022,0.0051 0.0082,0.01351 0.0094,0.01655 0.01223,0.02243 0.0072,0.05079 0.03048,0.09255 0.04663,0.08354 0.117714,0.207328 0.197154,0.347996 0.158881,0.281336 0.370625,0.65538 0.582076,1.027419 0.422905,0.744066 0.851663,1.464504 0.870806,1.498293 0.534724,0.943835 0.921201,1.834566 0.984695,2.359278 0.12684,1.048569 -0.324224,2.453955 -1.539244,5.125782 -1.280222,2.815198 -1.795787,4.813044 -1.696988,6.478007 0.195172,3.289339 2.700846,6.131182 6.064501,6.860708 1.183973,0.256788 3.193393,0.226336 4.553166,0.03877 0.02872,-0.004 0.08699,-0.01484 0.160129,-0.02796 0.0051,-9.41e-4 0.01125,-0.0087 0.01647,-0.0097 1.191186,-0.235506 2.788585,-0.83971 4.158198,-1.629018 0.01893,-0.0069 0.03881,-0.0109 0.05884,-0.01256 0.04738,-0.01515 0.06729,-0.03209 0.08249,-0.04853 0.01574,-0.02142 0.03493,-0.04021 0.05662,-0.05537 0.643292,-0.38484 1.229964,-0.801804 1.694912,-1.24027 1.281109,-1.208145 2.095236,-2.246691 2.555193,-3.138414 0.0054,-0.0034 0.01086,-0.0067 0.01647,-0.0097 2.204391,-3.8681 1.508454,-8.571612 -1.62918,-10.795992 C 22.577907,9.391645 20.285734,8.79979 17.050219,8.597588 14.73739,8.453041 13.421404,8.332717 12.500412,7.982375 11.57942,7.632031 11.086716,7.040079 10.554327,6.100365 10.480567,5.97016 10.432292,5.879961 10.375949,5.785511 10.195066,5.461236 10.005299,5.133681 9.822038,4.807807 9.830238,4.822477 9.567128,4.357842 9.286904,3.863245 8.485343,3.909615 8.023706,3.255707 7.24023,2.968443 c -0.01385,0.0025 -0.02816,0.0032 -0.04234,0.0029 -0.01615,0.0095 -0.005,0.0044 -0.01647,0.0097 l -2.5e-5,1.6e-5 -3.4e-5,-9e-6 z"
           id="path4690-5"
           sodipodi:nodetypes="csssssssssssssssssscssssscssssssccscc"
           inkscape:connector-curvature="0" />
        <path
           style="opacity:0.71847504;fill:none;stroke:url(#radialGradient5324);stroke-width:0.99059623;stroke-linecap:round;stroke-linejoin:round;stroke-miterlimit:4;stroke-opacity:1"
           d="m 8.442759,4.625151 c 0.16333,0.279693 0.337517,0.564448 0.467108,0.78573 0.164398,0.280176 0.230484,0.406826 0.281649,0.497139 0.56005,0.988536 1.003911,1.882073 1.106472,2.729528 0.172333,1.424645 -0.399429,2.959807 -1.629647,5.665061 -1.247515,2.743273 -1.678471,4.590147 -1.594917,5.998147 0.166855,2.812077 2.343266,5.326402 5.293849,5.966337 0.934283,0.202635 2.955824,0.197221 4.19533,0.02835 0.01068,-0.007 0.02172,-0.01348 0.03299,-0.01941 -0.0014,1.19e-4 -6.73e-4,0.01701 0.0094,0.01654 0.0054,-0.0034 0.0109,-0.0066 0.01646,-0.0097 0.0046,-6.41e-4 0.01157,-0.0089 0.01647,-0.0097 0.01588,-0.01073 0.0324,-0.02045 0.04947,-0.0291 1.042534,-0.206112 2.593329,-0.767767 3.858971,-1.497154 0.02925,-0.01432 0.06007,-0.02542 0.09186,-0.03199 0.0054,-0.0034 0.0109,-0.0066 0.01648,-0.0097 0.0054,-0.0034 0.0109,-0.0066 0.01647,-0.0097 0.02147,-0.02472 0.04614,-0.04666 0.07312,-0.06509 0.594886,-0.355667 1.129809,-0.746283 1.522833,-1.116929 1.227334,-1.15743 1.959779,-2.119375 2.34046,-2.857408 l 0.05444,-0.09828 c 3.2e-5,-5.3e-5 0.01359,-0.0052 0.01647,-0.0097 0.009,-0.01271 0.0052,-0.03982 0.01422,-0.05256 0.0025,-0.0043 0.01379,-0.0053 0.01648,-0.0097 7.1e-5,-8.5e-5 0.01135,-0.0046 0.01647,-0.0097 1.89,-3.45144 1.205159,-7.483379 -1.424528,-9.347655 C 22.298067,10.417392 20.119073,9.788168 16.975436,9.591709 14.652656,9.446543 13.27252,9.331452 12.140891,8.900981 10.979157,8.459059 10.273013,7.622918 9.696414,6.605168 9.622104,6.474003 9.576386,6.390907 9.536812,6.323456 c -0.0032,-0.0054 -0.0064,-0.01095 -0.0094,-0.01654 -0.0032,-0.0054 -0.0064,-0.01095 -0.0094,-0.01655 C 9.342552,5.975663 9.151593,5.646002 8.964101,5.312663 c -0.0025,-0.0042 -0.006,-0.01055 -0.0094,-0.01655 -0.0072,-0.01256 -0.01424,-0.02513 -0.02815,-0.04969 C 8.898641,5.197163 8.854411,5.119101 8.804504,5.030998 8.749634,4.934128 8.67228,4.797611 8.597962,4.666429 8.547702,4.655979 8.493863,4.636849 8.442648,4.625239 l 5.7e-5,-2.1e-4 5.4e-5,1.22e-4 z"
           id="path4020-8"
           sodipodi:nodetypes="cssssssssssssssssssccsssssssssssssssscc"
           inkscape:connector-curvature="0" />
        <path
           id="path4678-7"
           d="m 7.639122,3.750214 c -0.0078,0.0046 -0.01478,0.02163 -0.02362,0.03596 -0.434021,0.242002 -0.644564,0.36694 -0.612945,0.471104 -0.0319,0.07009 -0.05867,0.159771 -0.0287,0.259935 0.01208,0.04033 1.687435,2.978477 1.708676,3.015968 0.525736,0.927974 0.902792,1.841472 0.954248,2.266715 0.115243,0.952694 -0.293318,2.332769 -1.503701,4.994394 -1.287795,2.831858 -1.827891,4.856299 -1.725423,6.583118 0.201985,3.404156 2.791522,6.329023 6.254819,7.080158 1.237352,0.268361 3.242331,0.250895 4.630823,0.05936 0.06207,-0.0086 0.117132,-0.0284 0.176622,-0.03767 1.229044,-0.240359 2.850416,-0.854356 4.250072,-1.660979 0.0678,-0.02165 0.141276,-0.05512 0.197965,-0.116476 0.656156,-0.392409 1.2539,-0.83225 1.735017,-1.28596 1.293419,-1.219759 2.132612,-2.264817 2.611793,-3.19381 2.258056,-3.96227 1.554234,-8.804812 -1.696909,-11.109664 C 23.209715,10.149541 20.891875,9.561788 17.635124,9.358257 13.016565,9.069614 12.381037,8.819981 11.332099,6.968508 11.259639,6.840611 11.213119,6.753497 11.153721,6.653654 10.971549,6.327104 10.782036,5.999995 10.59981,5.675951 10.58963,5.657831 9.615237,3.938175 9.332386,3.438831 9.285596,3.356221 9.005507,2.861861 9.060124,2.958266 c -0.61613,0.37163 -1.046208,0.604351 -1.37863,0.789081 -0.01144,0.0011 -0.03371,-0.0022 -0.04238,0.0029 l 8e-6,-3.3e-5 z"
           style="opacity:0.74439458;fill:url(#radialGradient5321);fill-opacity:1;fill-rule:nonzero;stroke:none"
           inkscape:connector-curvature="0" />
        <path
           sodipodi:nodetypes="cccsccc"
           style="fill:#642c03;fill-opacity:1;fill-rule:nonzero;stroke:none"
           d="m 20.229758,25.886019 c 0.267435,-0.07412 0.553951,0.12091 0.637446,0.447811 l 0.675302,2.606117 c 0.08366,0.32684 -0.06812,0.643136 -0.335532,0.717303 -0.267436,0.07412 -0.553953,-0.120911 -0.637446,-0.447811 l -0.675304,-2.606118 c -0.08366,-0.32684 0.06812,-0.643135 0.335534,-0.717302 l 0,0 z"
           id="path5147-4"
           inkscape:connector-curvature="0" />
        <path
           id="path5155-9"
           d="m 21.28476,25.317022 c -0.196704,0.198964 -0.174229,0.54934 0.06183,0.786481 l 1.877064,1.899045 c 0.23592,0.23726 0.580602,0.261453 0.777341,0.06253 0.196704,-0.198965 0.17423,-0.549341 -0.06183,-0.786481 l -1.877064,-1.899041 c -0.235919,-0.23726 -0.580602,-0.261453 -0.777341,-0.06253 l 0,-4e-6 z"
           style="fill:#642c03;fill-opacity:1;fill-rule:nonzero;stroke:none"
           sodipodi:nodetypes="cccsccc"
           inkscape:connector-curvature="0" />
        <path
           id="path5157-9"
           d="m 19.160593,26.340585 c 0.266563,0.07065 0.416525,0.385723 0.326743,0.713111 l -0.707402,2.614876 c -0.0896,0.327421 -0.376418,0.52653 -0.643001,0.455926 -0.266559,-0.07065 -0.416522,-0.385723 -0.326742,-0.71311 l 0.7074,-2.614877 c 0.0896,-0.327419 0.37642,-0.526529 0.643,-0.455926 l 2e-6,0 z"
           style="fill:#642c03;fill-opacity:1;fill-rule:nonzero;stroke:none"
           sodipodi:nodetypes="cccsccc"
           inkscape:connector-curvature="0" />
        <path
           sodipodi:nodetypes="cccsccc"
           style="fill:#642c03;fill-opacity:1;fill-rule:nonzero;stroke:none"
           d="m 22.145035,24.584649 c -0.07324,0.270574 0.119524,0.560461 0.442639,0.644919 l 2.57586,0.683125 c 0.323045,0.08464 0.635663,-0.06894 0.708954,-0.339516 0.07324,-0.270574 -0.119525,-0.56046 -0.44264,-0.64492 l -2.57586,-0.683125 c -0.323045,-0.08464 -0.635662,0.06894 -0.708954,0.339516 l 1e-6,10e-7 z"
           id="path5159-4"
           inkscape:connector-curvature="0" />
        <path
           style="fill:url(#radialGradient5314);fill-opacity:1;fill-rule:nonzero;stroke:none"
           d="m 18.767244,9.521776 c 0.856203,0.276894 1.637243,0.745921 2.431775,1.167307 0.961536,0.651579 1.923215,1.419168 2.509834,2.492587 0.512861,0.930847 0.905089,1.929207 1.081787,2.971955 0.300981,1.101801 0.186683,2.211344 0.09809,3.298136 l -0.0072,0.11244 c 0.383522,-0.937271 0.641244,-1.932955 0.759135,-2.972556 0.02317,-0.692742 0.0159,-1.412588 -0.09669,-2.108172 C 25.302589,13.381547 24.773063,12.305953 23.903396,11.5877 22.397902,10.283889 20.642453,9.857555 18.767162,9.521776 l 8.2e-5,0 z m 6.1837,12.8523 0.04599,0.08119 c 0.08742,0.03539 0.127176,-0.07587 0.20123,-0.08231 l -0.125667,-0.03431 -0.121561,0.03544 8e-6,-10e-6 z"
           id="path4229-5"
           sodipodi:nodetypes="ccscccccccccccc"
           inkscape:connector-curvature="0" />
        <path
           sodipodi:nodetypes="ccscccccccccccc"
           id="path4271-9"
           d="m 12.556268,10.420414 c 0.08628,0.969315 0.326897,2.041101 0.52997,3.083095 0.351693,1.383739 0.790146,2.868135 1.510305,4.29806 0.623974,1.243512 1.315361,2.442833 2.070434,3.496985 0.781704,1.211199 1.627808,2.075349 2.453268,2.941678 l 0.08512,0.09138 c -0.755242,-0.485524 -1.53642,-1.128829 -2.330711,-1.929306 -0.521464,-0.580591 -1.058905,-1.210588 -1.563335,-1.909284 -0.790206,-1.160541 -1.520053,-2.543714 -1.934583,-3.906974 -0.762813,-2.412329 -0.833967,-4.277175 -0.820468,-6.165634 l 0,0 z m 8.741183,16.405255 0.05425,0.109541 c 0.01414,0.105132 -0.07472,0.04257 -0.08997,0.100093 l -0.0079,-0.136786 0.04367,-0.07285 -5e-5,2e-6 z"
           style="fill:url(#radialGradient5311);fill-opacity:1;fill-rule:nonzero;stroke:none"
           inkscape:connector-curvature="0" />
      </g>
    </g>
  </g>
</svg>
